<svg width="101" height="100" viewBox="0 0 101 100" fill="none" xmlns="http://www.w3.org/2000/svg">
<path d="M88.1191 44.0663C93.3672 44.1014 95.0664 42.6151 95.7207 41.6502C98.1562 38.4627 94.3418 32.3534 85.3984 27.7186C88.8672 21.16 91.2793 15.2811 92.4961 11.0584C93.1562 8.7479 92.709 7.34751 92.584 7.10337C92.248 9.15806 89.4883 16.5682 83.1699 26.6444C78.2871 24.453 72.1309 22.7186 64.8555 21.996C63.1094 18.6874 58.043 9.52329 53.043 4.62681C49.7539 1.39439 47.1211 0.20884 45.0664 0.0428249H45.0566C42.3555 -0.25991 40.6289 1.1854 39.7051 2.19126C36.3457 5.8104 34.9531 11.7362 34.8223 18.6112C33.4082 16.1991 31.4688 13.8006 29.2559 13.5467H29.2207C25.1855 12.867 21.7227 19.2538 22.1895 29.4237C14.6973 29.6932 8.32227 30.5467 4.02539 31.617C2.0918 32.0956 0.857422 33.037 0.556641 33.5155C0.751953 33.4413 4.93164 31.7147 22.3457 31.7147C23.3652 42.0663 28.1563 51.6014 27.4238 49.9159C25.5234 52.9237 19.9551 62.0956 18.1836 68.9979C17.0371 73.4667 17.3301 76.3436 18.2129 78.2049C19.3008 80.6952 21.418 81.4706 22.7441 81.7713C27.627 82.8866 33.5605 81.0624 39.6777 77.6424C38.207 80.1502 36.9629 83.2108 37.9082 85.326C39.3359 89.1639 46.5977 88.9706 55.1816 83.4803C59.123 89.7655 63.0078 94.7967 66.0605 97.9569C66.5617 98.4972 67.1371 98.9634 67.7695 99.3417C68.7734 99.9686 69.4453 99.9999 69.4453 99.9999C67.8359 98.6815 62.8047 92.578 57.2305 82.0741C61.5703 78.9491 66.1465 74.4823 70.4082 68.5448C94.3965 69.4432 98.3945 63.7088 99.3145 62.3651C102.18 58.4823 99.9844 51.1463 88.1191 44.0663ZM72.9141 64.8124C77.5645 57.4471 78.8398 51.576 78.666 46.7792C84.1074 50.2108 87.8809 54.119 88.248 58.2694C88.4707 60.7948 86.666 63.9569 72.9141 64.8124ZM42.8633 75.7206C44.7695 74.5038 46.6777 73.1581 48.5664 71.7186C49.8711 74.3221 51.2227 76.8163 52.5898 79.1776C44.6602 83.4471 39.1445 81.6698 42.8633 75.7206ZM84.8555 42.2538C82.8457 41.2108 80.7227 40.2342 78.5312 39.3143C80.0835 36.9569 81.5646 34.5535 82.9727 32.1073C90.6016 36.8143 91.9375 42.494 84.8555 42.2538ZM55.0273 77.7342C53.9512 75.5174 52.8789 73.1444 51.8047 70.617C60.2519 70.8651 63.9961 66.9588 64.1641 66.6307C64.1641 66.6444 59.2812 69.6854 51.9512 69.0233C57.9349 64.0253 63.4919 58.5376 68.5645 52.617C70.265 50.6236 71.888 48.5982 73.4336 46.5409C73.3633 46.4842 73.1328 45.9549 70.209 44.1971C60.1113 55.9686 50.2207 63.3377 44.2813 66.8377C40.2598 64.6542 36.3047 60.6307 33.4004 54.828C29.4941 47.0311 27.541 38.7362 27.2344 32.1581C29.6367 32.3358 32.1699 32.5819 34.8223 32.9159C30.4688 40.1034 32.0117 45.2206 32.1914 45.4608C32.1914 45.4471 32.0059 39.7635 36.125 33.826C37.8803 44.0779 40.8077 54.0941 44.8496 63.6776C45.0313 63.6034 45.209 63.8495 48.4961 62.0663C43.3535 47.5213 41.9023 35.0799 41.8555 28.1932C45.7617 25.7674 51.2656 24.326 57.7988 24.7147C66.5039 25.2362 74.666 27.6932 80.5176 30.7127C79.1256 32.7518 77.6068 34.8657 75.9609 37.0545C71.9121 29.6874 66.7305 28.4842 66.418 28.5155C66.4395 28.5155 71.4766 31.2635 74.5273 37.7381C67.2037 35.0504 59.6684 32.9787 52 31.5448C49.4483 31.0719 46.8826 30.6779 44.3066 30.3631C44.293 30.451 43.9531 30.7245 43.8848 34.3338C59.0938 37.1639 70.5742 42.1249 76.5469 45.5077C76.6914 50.1073 75.1895 55.5877 71.584 61.0487C66.7793 68.3358 60.5703 74.1795 55.0273 77.7342ZM60.3789 21.6795C51.6758 21.3553 46.0078 23.1307 41.8848 25.7167C42.2754 15.5018 46.0469 10.7987 49.3477 11.0135C52.6484 10.1854 60.0703 21.201 60.3789 21.6795ZM34.8613 22.285C34.9551 24.6502 35.1719 27.0936 35.4883 29.5663C32.6465 29.4002 29.875 29.3221 27.207 29.3202C27.1914 29.953 27.1836 19.3592 32.0254 19.6346H32.043C33.168 19.8475 34.1191 20.9784 34.8613 22.285ZM29.3809 53.9256C33.4355 61.6795 37.8379 65.7557 42.125 68.0487C32.9863 72.8846 26.9824 71.9549 25.5391 68.9295C25.5 68.8885 23.3652 65.9413 29.3809 53.9276V53.9256Z" fill="#110C09"/>
</svg>
