<svg width="100" height="78" viewBox="0 0 100 78" fill="none" xmlns="http://www.w3.org/2000/svg">
<path d="M99.1125 59.5688C97.1563 62.0375 92.3688 63.7938 92.3688 63.7938L56.7688 76.5813V67.15L82.9688 57.8187C85.9438 56.7562 86.4 55.2438 83.9813 54.4563C81.5688 53.6625 77.2 53.8938 74.2313 54.9563L56.7688 61.1062V51.3187L57.775 50.9812C57.775 50.9812 62.8188 49.1937 69.9125 48.4062C77.0063 47.625 85.6938 48.5125 92.5125 51.0938C100.2 53.5312 101.063 57.1063 99.1125 59.5688ZM60.1563 43.5188V19.3937C60.1563 16.5625 59.6375 13.9562 56.9813 13.2187C54.9438 12.5625 53.6813 14.4562 53.6813 17.2812V77.6813L37.3938 72.5125V0.5C44.3188 1.7875 54.4063 4.825 59.8313 6.65625C73.625 11.3875 78.3 17.2812 78.3 30.5625C78.3 43.5062 70.3125 48.4125 60.1563 43.5125V43.5188ZM7.50626 66.175C-0.381245 63.9375 -1.69374 59.3125 1.90001 56.65C5.22501 54.1875 10.875 52.3375 10.875 52.3375L34.2313 44.025V53.4938L17.4188 59.5125C14.4563 60.575 14 62.0812 16.4125 62.875C18.825 63.6625 23.1938 63.4375 26.1625 62.375L34.225 59.4437V67.9187L32.6188 68.1875C24.2076 69.5493 15.5919 68.8567 7.50626 66.1687V66.175Z" fill="#ffffff"/>
</svg>
