<svg width="100" height="100" viewBox="0 0 100 100" fill="none" xmlns="http://www.w3.org/2000/svg">
<path d="M2.05625 64.5813C5.19244 74.834 11.5374 83.8091 20.1571 90.1852C28.7768 96.5614 39.2158 100.002 49.9375 100C77.5875 100 100 77.6125 100 50C100 22.3875 77.5875 3.74865e-06 49.9438 3.74865e-06C37.2517 -0.00490614 25.0321 4.8135 15.7591 13.4795C6.48615 22.1456 0.852899 34.0117 0 46.675L0.01875 46.7125L26.9188 57.7688C29.3449 56.1625 32.2183 55.3681 35.125 55.5L47.375 37.725L47.3688 37.475C47.3737 32.4335 49.3782 27.5999 52.9425 24.0344C56.5068 20.469 61.3398 18.4629 66.3812 18.4563C71.4227 18.4629 76.2557 20.469 79.82 24.0344C83.3843 27.5999 85.3888 32.4335 85.3938 37.475C85.3918 40.0083 84.8845 42.5158 83.9014 44.8505C82.9183 47.1853 81.4793 49.3005 79.6686 51.0722C77.8579 52.8439 75.7119 54.2365 73.3563 55.1686C71.0006 56.1006 68.4827 56.5532 65.95 56.5L48.425 69C48.4844 71.3154 47.9641 73.609 46.9113 75.672C45.8585 77.7351 44.3066 79.5022 42.3968 80.8127C40.4869 82.1232 38.2798 82.9354 35.9761 83.1755C33.6724 83.4156 31.3452 83.076 29.2062 82.1875C27.1533 81.332 25.3364 79.9949 23.9091 78.2892C22.4819 76.5834 21.4862 74.5592 21.0063 72.3875L2.0625 64.5813H2.05625Z" fill="#ffffff"/>
<path d="M30.425 79.2691C33.0289 80.2631 35.9177 80.2036 38.4785 79.1034C41.0394 78.0032 43.071 75.9487 44.1425 73.3757C45.2139 70.8027 45.241 67.9135 44.218 65.3208C43.195 62.7282 41.2023 60.6359 38.6625 59.4879C36.1443 58.4371 33.3189 58.3924 30.7687 59.3629L37.1625 62.0129C38.1187 62.411 38.9871 62.9935 39.7182 63.7271C40.4492 64.4608 41.0286 65.3313 41.4233 66.2889C41.8179 67.2465 42.0201 68.2725 42.0182 69.3082C42.0164 70.344 41.8105 71.3692 41.4125 72.3254C41.0144 73.2816 40.4319 74.15 39.6982 74.8811C38.9645 75.6121 38.094 76.1915 37.1364 76.5862C36.1788 76.9808 35.1529 77.183 34.1171 77.1811C33.0814 77.1793 32.0562 76.9735 31.1 76.5754L24.9125 74.0129C26.0385 76.3837 28.0021 78.2538 30.425 79.2629V79.2691ZM53.7125 37.4754C53.7141 40.836 55.049 44.0587 57.4241 46.4361C59.7993 48.8136 63.0206 50.1517 66.3812 50.1566C69.7418 50.1517 72.9632 48.8136 75.3383 46.4361C77.7135 44.0587 79.0483 40.836 79.05 37.4754C79.045 34.117 77.7087 30.8975 75.3339 28.5227C72.9591 26.1479 69.7397 24.8116 66.3812 24.8066C63.0228 24.8116 59.8033 26.1479 57.4285 28.5227C55.0538 30.8975 53.7174 34.117 53.7125 37.4754ZM66.4 27.9316C67.6508 27.9325 68.8892 28.1796 70.0446 28.6591C71.1999 29.1385 72.2494 29.8408 73.1333 30.7259C74.0172 31.6109 74.7182 32.6614 75.1961 33.8174C75.674 34.9733 75.9196 36.212 75.9187 37.4629C75.9179 38.7137 75.6707 39.9522 75.1913 41.1075C74.7119 42.2628 74.0096 43.3124 73.1245 44.1963C72.2394 45.0801 71.189 45.7811 70.033 46.259C68.8771 46.7369 67.6383 46.9825 66.3875 46.9816C63.8613 46.98 61.4392 45.9749 59.6541 44.1874C57.869 42.4 56.8671 39.9766 56.8687 37.4504C56.8704 34.9242 57.8755 32.5021 59.663 30.717C61.4504 28.9319 63.8738 27.93 66.4 27.9316Z" fill="#ffffff"/>
</svg>
