<svg width="100" height="100" viewBox="0 0 100 100" fill="none" xmlns="http://www.w3.org/2000/svg">
<path d="M45.0127 99.7932C37.0904 98.9767 29.4785 96.2766 22.8127 91.9182C17.2002 88.262 15.9314 86.7557 15.9314 83.7557C15.9314 77.7245 22.5689 67.1557 33.9252 55.112C40.3689 48.2682 49.3564 40.2495 50.3252 40.4682C52.2127 40.8932 67.3127 55.612 72.9627 62.537C81.9002 73.4932 86.0127 82.4682 83.9252 86.4682C82.3377 89.5057 72.4877 95.4495 65.2564 97.7307C59.2939 99.612 51.4627 100.412 45.0127 99.7932ZM8.35016 77.4807C3.68141 70.3307 1.32516 63.2932 0.187656 53.1057C-0.187344 49.737 -0.0498442 47.8182 1.04391 40.9182C2.40641 32.312 7.30641 22.3557 13.2002 16.2307C15.7064 13.6245 15.9314 13.562 18.9877 14.587C22.7064 15.837 26.6752 18.5745 32.8189 24.137L36.4064 27.3807L34.4502 29.787C25.3502 40.9557 15.7502 56.787 12.1252 66.5807C10.1564 71.9057 9.36266 77.2495 10.2127 79.4745C10.7814 80.9745 10.2564 80.412 8.33766 77.4807H8.35016ZM90.2314 78.6995C90.6939 76.4495 90.1127 72.3245 88.7439 68.1557C85.7877 59.137 75.9002 42.3557 66.8189 30.9495L63.9627 27.3557L67.0502 24.5182C71.0877 20.812 73.8939 18.5932 76.9252 16.7057C79.3064 15.2245 82.7189 13.9057 84.1814 13.9057C85.0877 13.9057 88.2689 17.2057 90.8377 20.8057C94.9247 26.6303 97.7808 33.2272 99.2314 40.1932C100.188 44.7432 100.269 54.4807 99.3814 59.0182C98.5484 63.0822 97.2915 67.0476 95.6314 70.8495C94.5127 73.3057 91.7314 78.0745 90.5064 79.6245C89.8814 80.4245 89.8814 80.4182 90.2377 78.6995H90.2314ZM45.8439 12.1995C41.6564 10.0745 35.1939 7.79323 31.6189 7.18073C30.0491 6.94693 28.4613 6.85697 26.8752 6.91198C23.9314 7.06198 24.0627 6.91198 28.7877 4.67448C32.4916 2.89564 36.4062 1.5936 40.4377 0.799477C45.4377 -0.256773 54.8502 -0.263023 59.7752 0.768227C65.0877 1.89323 71.3564 4.21823 74.8877 6.39323L75.9377 7.03698L73.5314 6.91198C68.7439 6.67448 61.7814 8.59948 54.2939 12.2432C52.0377 13.3432 50.0689 14.2182 49.9252 14.1932C48.5432 13.5693 47.1801 12.9044 45.8377 12.1995H45.8439Z" fill="#ffffff"/>
</svg>
